<svg width="16.000000" height="16.000000" viewBox="0 0 16 16" fill="none" xmlns="http://www.w3.org/2000/svg" xmlns:xlink="http://www.w3.org/1999/xlink" id="chats">
		<path id="Vector" d="M12 5.34L12 4L4 4L4 5.34L12 5.34ZM9.34 9.34L9.34 8L4 8L4 9.34L9.34 9.34ZM4 6L4 7.34L12 7.34L12 6L4 6ZM13.34 1.34C13.69 1.34 14 1.47 14.25 1.75C14.52 2 14.65 2.3 14.65 2.65L14.65 10.65C14.65 11.01 14.52 11.32 14.25 11.59C14 11.86 13.69 12 13.34 12L4 12L1.34 14.65L1.34 2.65C1.34 2.3 1.46 2 1.71 1.75C1.98 1.47 2.3 1.34 2.65 1.34L13.34 1.34Z" fill="currentColor" fill-opacity="1.000000" fill-rule="nonzero"/>
	</g>
</svg>
