<svg width="69.000000" height="82.000000" viewBox="0 0 69 82" fill="none" xmlns="http://www.w3.org/2000/svg" xmlns:xlink="http://www.w3.org/1999/xlink">
	<desc>
			Created with Pixso.
	</desc>
	<defs>
		<filter id="filter_9_1533_dd" x="0.000000" y="0.000000" width="69.000000" height="82.000000" filterUnits="userSpaceOnUse" color-interpolation-filters="sRGB">
			<feFlood flood-opacity="0" result="BackgroundImageFix"/>
			<feColorMatrix in="SourceAlpha" type="matrix" values="0 0 0 0 0 0 0 0 0 0 0 0 0 0 0 0 0 0 127 0" result="hardAlpha"/>
			<feOffset dx="0" dy="4"/>
			<feGaussianBlur stdDeviation="1.33333"/>
			<feComposite in2="hardAlpha" operator="out" k2="-1" k3="1"/>
			<feColorMatrix type="matrix" values="0 0 0 0 0 0 0 0 0 0 0 0 0 0 0 0 0 0 0.25 0"/>
			<feBlend mode="normal" in2="BackgroundImageFix" result="effect_dropShadow_1"/>
			<feBlend mode="normal" in="SourceGraphic" in2="effect_dropShadow_1" result="shape"/>
		</filter>
	</defs>
	<g filter="url(#filter_9_1533_dd)">
		<path id="Vector" d="M54.11 0C37.41 8.25 20.7 16.5 4 24.75C4 26.29 4 27.84 4.01 29.38C4 29.38 4 29.38 4 29.38C4 31.1 4 32.81 4.01 34.53C4.01 34.53 4 34.53 4 34.54C4 36.08 4 37.62 4.01 39.16C4 39.16 4 39.17 4 39.17C4.02 46.39 4.04 53.62 4.06 60.84C7.56 63.68 11.06 66.52 14.56 69.36C15.81 68.69 17.07 68.03 18.32 67.36C21.31 69.57 24.3 71.78 27.29 74C30.68 68.85 34.08 63.71 37.47 58.57C46.64 53.82 55.82 49.08 65 44.33L65 7.87C61.37 5.24 57.74 2.62 54.11 0ZM19.12 63.32L18.1 64.83L17.96 64.83C17.92 64.22 17.88 63.6 17.85 62.98C17.75 61.31 17.66 59.65 17.56 57.98C17.48 56.65 17.41 55.33 17.33 54C17.31 54.01 17.3 54.01 17.28 54.02L11.34 56.97L7.41 58.92L5.78 59.73L5.78 26.03L53.33 2.41L53.33 36.1L29.45 47.97C26.78 51.94 24.11 55.91 21.43 59.88C20.66 61.02 19.89 62.17 19.12 63.32Z" fill="#AE7AFF" fill-opacity="1.000000" fill-rule="nonzero"/>
		<path id="Vector" d="M11.4 38.22L11.4 31.04L8.75 32.35L8.75 29.01L17.88 24.5L17.88 27.83L15.22 29.14L15.22 36.32L11.39 38.22L11.4 38.22Z" fill="#AE7AFF" fill-opacity="1.000000" fill-rule="nonzero"/>
		<path id="Vector" d="M11.4 38.22L11.4 31.04L8.75 32.35L8.75 29.01L17.88 24.5L17.88 27.83L15.22 29.14L15.22 36.32L11.39 38.22L11.4 38.22Z" fill="#FFFFFF" fill-opacity="0.800000" fill-rule="nonzero"/>
		<path id="Vector" d="M19.25 34.33L19.25 23.82L23.07 21.92L23.07 32.44L19.25 34.33Z" fill="#AE7AFF" fill-opacity="1.000000" fill-rule="nonzero"/>
		<path id="Vector" d="M19.25 34.33L19.25 23.82L23.07 21.92L23.07 32.44L19.25 34.33Z" fill="#FFFFFF" fill-opacity="0.800000" fill-rule="nonzero"/>
		<path id="Vector" d="M31.64 28.2C31.17 27.41 30.79 26.85 30.49 26.51C30.19 26.16 29.9 25.96 29.61 25.89C29.33 25.82 28.99 25.87 28.58 26.05L28.58 29.71L24.75 31.61L24.75 21.09L28.58 19.2L28.58 22.69C28.95 22.47 29.26 22.2 29.51 21.87C29.77 21.53 30.03 21.07 30.29 20.48C30.55 19.89 30.88 19.01 31.27 17.86L35.48 15.78C35.18 16.62 34.91 17.32 34.68 17.9C34.45 18.47 34.21 19 33.98 19.49C33.74 19.97 33.52 20.36 33.31 20.67C33.11 20.99 32.88 21.27 32.62 21.54C32.36 21.81 32.1 22.04 31.83 22.22C31.57 22.41 31.25 22.6 30.88 22.8L30.88 23.66C31.3 23.47 31.67 23.33 31.98 23.24C32.29 23.15 32.59 23.11 32.88 23.12C33.18 23.12 33.44 23.18 33.67 23.29C33.9 23.39 34.14 23.57 34.4 23.82C34.65 24.07 34.9 24.37 35.15 24.72C35.39 25.07 35.66 25.52 35.97 26.05L31.64 28.2L31.64 28.2Z" fill="#AE7AFF" fill-opacity="1.000000" fill-rule="nonzero"/>
		<path id="Vector" d="M31.64 28.2C31.17 27.41 30.79 26.85 30.49 26.51C30.19 26.16 29.9 25.96 29.61 25.89C29.33 25.82 28.99 25.87 28.58 26.05L28.58 29.71L24.75 31.61L24.75 21.09L28.58 19.2L28.58 22.69C28.95 22.47 29.26 22.2 29.51 21.87C29.77 21.53 30.03 21.07 30.29 20.48C30.55 19.89 30.88 19.01 31.27 17.86L35.48 15.78C35.18 16.62 34.91 17.32 34.68 17.9C34.45 18.47 34.21 19 33.98 19.49C33.74 19.97 33.52 20.36 33.31 20.67C33.11 20.99 32.88 21.27 32.62 21.54C32.36 21.81 32.1 22.04 31.83 22.22C31.57 22.41 31.25 22.6 30.88 22.8L30.88 23.66C31.3 23.47 31.67 23.33 31.98 23.24C32.29 23.15 32.59 23.11 32.88 23.12C33.18 23.12 33.44 23.18 33.67 23.29C33.9 23.39 34.14 23.57 34.4 23.82C34.65 24.07 34.9 24.37 35.15 24.72C35.39 25.07 35.66 25.52 35.97 26.05L31.64 28.2L31.64 28.2Z" fill="#FFFFFF" fill-opacity="0.800000" fill-rule="nonzero"/>
		<path id="Vector" d="M36.09 22.48L36.09 20.17L41.34 17.57L41.34 19.88L36.09 22.48Z" fill="#AE7AFF" fill-opacity="1.000000" fill-rule="nonzero"/>
		<path id="Vector" d="M36.09 22.48L36.09 20.17L41.34 17.57L41.34 19.88L36.09 22.48Z" fill="#FFFFFF" fill-opacity="0.800000" fill-rule="nonzero"/>
		<path id="Vector" d="M11.4 52.59L11.4 45.41L8.75 46.72L8.75 43.39L17.88 38.87L17.88 42.2L15.22 43.52L15.22 50.69L11.39 52.59L11.4 52.59Z" fill="#AE7AFF" fill-opacity="1.000000" fill-rule="nonzero"/>
		<path id="Vector" d="M11.4 52.59L11.4 45.41L8.75 46.72L8.75 43.39L17.88 38.87L17.88 42.2L15.22 43.52L15.22 50.69L11.39 52.59L11.4 52.59Z" fill="#FFFFFF" fill-opacity="0.800000" fill-rule="nonzero"/>
		<path id="Vector" d="M21.53 47.57L17.58 49.53L21.22 37.21L25.77 34.96L29.41 43.67L25.45 45.63L25.09 44.62L21.89 46.2L21.53 47.57ZM22.53 43.31L24.46 42.35C24.28 41.76 24.15 41.24 24.08 40.8C24.01 40.35 23.96 39.75 23.94 39.02L23.04 39.46C23.01 40.23 22.97 40.87 22.9 41.39C22.84 41.9 22.71 42.54 22.53 43.31L22.53 43.31Z" fill="#AE7AFF" fill-opacity="1.000000" fill-rule="nonzero"/>
		<path id="Vector" d="M21.53 47.57L17.58 49.53L21.22 37.21L25.77 34.96L29.41 43.67L25.45 45.63L25.09 44.62L21.89 46.2L21.53 47.57ZM22.53 43.31L24.46 42.35C24.28 41.76 24.15 41.24 24.08 40.8C24.01 40.35 23.96 39.75 23.94 39.02L23.04 39.46C23.01 40.23 22.97 40.87 22.9 41.39C22.84 41.9 22.71 42.54 22.53 43.31L22.53 43.31Z" fill="#FFFFFF" fill-opacity="0.800000" fill-rule="nonzero"/>
		<path id="Vector" d="M30.49 43.14L30.49 32.63L34.31 30.73L34.31 37.91L37.94 36.12L37.94 39.45L30.49 43.14L30.49 43.14Z" fill="#AE7AFF" fill-opacity="1.000000" fill-rule="nonzero"/>
		<path id="Vector" d="M30.49 43.14L30.49 32.63L34.31 30.73L34.31 37.91L37.94 36.12L37.94 39.45L30.49 43.14L30.49 43.14Z" fill="#FFFFFF" fill-opacity="0.800000" fill-rule="nonzero"/>
		<path id="Vector" d="M46.17 35.38C45.7 34.59 45.32 34.03 45.02 33.69C44.72 33.35 44.43 33.14 44.14 33.07C43.86 33 43.52 33.06 43.11 33.23L43.11 36.89L39.28 38.79L39.28 28.27L43.11 26.38L43.11 29.87C43.48 29.65 43.79 29.38 44.04 29.05C44.3 28.72 44.56 28.25 44.82 27.66C45.08 27.07 45.41 26.2 45.8 25.05L50.01 22.96C49.71 23.8 49.44 24.5 49.21 25.08C48.98 25.66 48.75 26.19 48.51 26.67C48.27 27.15 48.05 27.55 47.85 27.86C47.64 28.17 47.41 28.46 47.15 28.73C46.89 28.99 46.63 29.22 46.36 29.4C46.1 29.59 45.78 29.78 45.41 29.98L45.41 30.84C45.84 30.65 46.2 30.51 46.51 30.42C46.82 30.34 47.12 30.29 47.42 30.3C47.71 30.31 47.97 30.36 48.2 30.47C48.43 30.57 48.68 30.75 48.93 31C49.19 31.25 49.43 31.55 49.68 31.9C49.92 32.26 50.2 32.7 50.5 33.24L46.17 35.38L46.17 35.38Z" fill="#AE7AFF" fill-opacity="1.000000" fill-rule="nonzero"/>
		<path id="Vector" d="M46.17 35.38C45.7 34.59 45.32 34.03 45.02 33.69C44.72 33.35 44.43 33.14 44.14 33.07C43.86 33 43.52 33.06 43.11 33.23L43.11 36.89L39.28 38.79L39.28 28.27L43.11 26.38L43.11 29.87C43.48 29.65 43.79 29.38 44.04 29.05C44.3 28.72 44.56 28.25 44.82 27.66C45.08 27.07 45.41 26.2 45.8 25.05L50.01 22.96C49.71 23.8 49.44 24.5 49.21 25.08C48.98 25.66 48.75 26.19 48.51 26.67C48.27 27.15 48.05 27.55 47.85 27.86C47.64 28.17 47.41 28.46 47.15 28.73C46.89 28.99 46.63 29.22 46.36 29.4C46.1 29.59 45.78 29.78 45.41 29.98L45.41 30.84C45.84 30.65 46.2 30.51 46.51 30.42C46.82 30.34 47.12 30.29 47.42 30.3C47.71 30.31 47.97 30.36 48.2 30.47C48.43 30.57 48.68 30.75 48.93 31C49.19 31.25 49.43 31.55 49.68 31.9C49.92 32.26 50.2 32.7 50.5 33.24L46.17 35.38L46.17 35.38Z" fill="#FFFFFF" fill-opacity="0.800000" fill-rule="nonzero"/>
	</g>
</svg>
