<svg width="28.000000" height="28.000000" viewBox="0 0 28 28" fill="none" xmlns="http://www.w3.org/2000/svg" xmlns:xlink="http://www.w3.org/1999/xlink">
	<desc>
			Created with Pixso.
	</desc>
	<defs>
		<filter id="filter_7_966_dd" x="0.000000" y="0.000000" width="28.000000" height="28.000000" filterUnits="userSpaceOnUse" color-interpolation-filters="sRGB">
			<feFlood flood-opacity="0" result="BackgroundImageFix"/>
			<feColorMatrix in="SourceAlpha" type="matrix" values="0 0 0 0 0 0 0 0 0 0 0 0 0 0 0 0 0 0 127 0" result="hardAlpha"/>
			<feOffset dx="0" dy="4"/>
			<feGaussianBlur stdDeviation="1.33333"/>
			<feComposite in2="hardAlpha" operator="out" k2="-1" k3="1"/>
			<feColorMatrix type="matrix" values="0 0 0 0 0 0 0 0 0 0 0 0 0 0 0 0 0 0 0.25 0"/>
			<feBlend mode="normal" in2="BackgroundImageFix" result="effect_dropShadow_1"/>
			<feBlend mode="normal" in="SourceGraphic" in2="effect_dropShadow_1" result="shape"/>
		</filter>
	</defs>
	<g filter="url(#filter_7_966_dd)">
		<path id="Icon" d="M6.73 2.5L5.67 3.55C5.75 3.63 6.07 3.95 6.61 4.53L7.94 5.85C7.37 6.3 6.77 6.94 6.14 7.77Q5.25 8.98 4.82 10Q5.35 11.36 6.21 12.46Q7.12 13.64 8.41 14.53Q9.54 15.3 10.79 15.73Q12.3 16.25 14 16.25Q15.83 16.25 17.42 15.63Q17.52 15.59 17.63 15.54L19.19 17.1C19.89 17.78 20.31 18.19 20.44 18.32L21.5 17.26L6.73 2.5ZM12.47 6.13C12.97 5.92 13.47 5.82 14 5.82Q14.82 5.82 15.53 6.1Q16.29 6.41 16.92 7.07Q17.58 7.7 17.89 8.46Q18.17 9.17 18.17 10Q18.17 10.24 18.15 10.47Q18.08 11 17.86 11.52L20.28 13.94Q21.35 13.02 22.12 11.9Q22.72 11.01 23.14 10C22.41 8.12 21.21 6.61 19.54 5.46Q18.5 4.74 17.35 4.32Q15.77 3.75 14 3.75Q12.2 3.75 10.67 4.33L12.47 6.13ZM14 7.5L13.88 7.5L16.5 10.15L16.5 10Q16.5 9.54 16.35 9.15Q16.17 8.65 15.75 8.24C15.26 7.74 14.67 7.5 14 7.5ZM9.82 10C9.82 9.4 9.97 8.78 10.28 8.16L11.57 9.45C11.52 9.66 11.5 9.84 11.5 10Q11.5 10.45 11.64 10.84Q11.82 11.34 12.24 11.75Q12.65 12.17 13.15 12.35Q13.54 12.5 14 12.5C14.15 12.5 14.33 12.47 14.54 12.42L15.83 13.71C15.21 14.02 14.59 14.17 14 14.17Q13.17 14.17 12.46 13.9Q11.68 13.6 11.03 12.96Q10.39 12.31 10.09 11.53Q9.82 10.82 9.82 10Z" fill="#FFFFFF" fill-opacity="0.750000" fill-rule="evenodd"/>
	</g>
</svg>
