<svg width="16.000000" height="16.000000" viewBox="0 0 16 16" fill="none" xmlns="http://www.w3.org/2000/svg" xmlns:xlink="http://www.w3.org/1999/xlink" id="search">
	
		<path id="Vector" d="M4.21 8.46C4.8 9.05 5.51 9.34 6.34 9.34C7.17 9.34 7.88 9.05 8.46 8.46C9.05 7.88 9.34 7.17 9.34 6.34C9.34 5.51 9.05 4.8 8.46 4.21C7.88 3.63 7.17 3.34 6.34 3.34C5.51 3.34 4.8 3.63 4.21 4.21C3.63 4.8 3.34 5.51 3.34 6.34C3.34 7.17 3.63 7.88 4.21 8.46ZM10.34 9.34L13.65 12.65L12.65 13.65L9.34 10.34L9.34 9.81L9.15 9.62C8.36 10.31 7.42 10.65 6.34 10.65C5.13 10.65 4.1 10.23 3.25 9.4C2.41 8.57 2 7.55 2 6.34C2 5.13 2.41 4.11 3.25 3.28C4.1 2.42 5.13 2 6.34 2C7.55 2 8.57 2.42 9.4 3.28C10.23 4.11 10.65 5.13 10.65 6.34C10.65 6.78 10.55 7.28 10.34 7.84C10.13 8.38 9.89 8.82 9.62 9.15L9.81 9.34L10.34 9.34Z" fill="currentColor" fill-opacity="1.000000" fill-rule="nonzero"/>
	</g>
</svg>
