<svg width="13.004883" height="13.312500" viewBox="0 0 13.0049 13.3125" fill="none" xmlns="http://www.w3.org/2000/svg" xmlns:xlink="http://www.w3.org/1999/xlink" id="settings">
	
	<path id="Vector" d="M4.84 8.31C5.3 8.77 5.85 9 6.5 9C7.14 9 7.7 8.77 8.15 8.31C8.61 7.85 8.84 7.3 8.84 6.65C8.84 6.01 8.61 5.45 8.15 5C7.7 4.54 7.14 4.31 6.5 4.31C5.85 4.31 5.3 4.54 4.84 5C4.38 5.45 4.15 6.01 4.15 6.65C4.15 7.3 4.38 7.85 4.84 8.31ZM11.47 7.31L12.87 8.4C13.02 8.51 13.04 8.65 12.94 8.84L11.59 11.15C11.51 11.3 11.37 11.34 11.19 11.28L9.53 10.62C9.09 10.93 8.72 11.15 8.4 11.28L8.15 13.03C8.11 13.21 8.01 13.31 7.84 13.31L5.15 13.31C4.99 13.31 4.88 13.21 4.84 13.03L4.59 11.28C4.2 11.11 3.82 10.89 3.47 10.62L1.81 11.28C1.62 11.34 1.49 11.3 1.4 11.15L0.06 8.84C-0.04 8.65 -0.02 8.51 0.12 8.4L1.53 7.31C1.51 7.16 1.5 6.94 1.5 6.65C1.5 6.36 1.51 6.14 1.53 6L0.12 4.9C-0.02 4.8 -0.04 4.65 0.06 4.46L1.4 2.15C1.49 2.01 1.62 1.96 1.81 2.03L3.47 2.68C3.9 2.37 4.28 2.15 4.59 2.03L4.84 0.28C4.88 0.09 4.99 0 5.15 0L7.84 0C8.01 0 8.11 0.09 8.15 0.28L8.4 2.03C8.8 2.19 9.17 2.41 9.53 2.68L11.19 2.03C11.37 1.96 11.51 2.01 11.59 2.15L12.94 4.46C13.04 4.65 13.02 4.8 12.87 4.9L11.47 6C11.49 6.14 11.5 6.36 11.5 6.65C11.5 6.94 11.49 7.16 11.47 7.31Z" fill="currentColor" fill-opacity="1.000000" fill-rule="nonzero"/>
</svg>
