<svg width="18.000000" height="12.023438" viewBox="0 0 18 12.0234" fill="none" xmlns="http://www.w3.org/2000/svg" xmlns:xlink="http://www.w3.org/1999/xlink" id="upload">
	<desc>
			Created with Pixso.
	</desc>
	<defs/>
	<path id="Icon" d="M15.7 4.81Q15.15 4.58 14.51 4.53Q14.42 4.03 14.23 3.57Q13.72 2.31 12.51 1.33Q11.36 0.38 10.06 0.1Q9.54 0 9 0Q8.2 0 7.46 0.21Q6.74 0.42 6.08 0.84Q5.33 1.31 4.78 1.94Q4.33 2.45 4 3.05Q3.42 3.12 2.89 3.32Q1.93 3.7 1.16 4.57Q0.45 5.35 0.18 6.27Q0 6.87 0 7.52Q0 8.45 0.32 9.25Q0.64 10.05 1.3 10.72Q1.97 11.37 2.77 11.69Q3.57 12.02 4.5 12.02L14.23 12.02Q15.02 12.02 15.68 11.74Q16.33 11.47 16.87 10.93Q17.49 10.31 17.77 9.57Q18 8.96 18 8.26Q18 7.5 17.73 6.86Q17.47 6.24 16.98 5.73Q16.4 5.11 15.7 4.81ZM12.76 6.75L10.51 6.75L10.51 9.77L7.48 9.77L7.48 6.75L5.23 6.75L9 3.02L12.76 6.75Z" fill="#FFFFFF" fill-opacity="1.000000" fill-rule="evenodd"/>
</svg>
